<?xml version="1.0" encoding="utf-8"?>
<!-- Generator: Adobe Illustrator 20.1.0, SVG Export Plug-In . SVG Version: 6.00 Build 0)  -->
<svg version="1.1" id="Слой_1" xmlns="http://www.w3.org/2000/svg" xmlns:xlink="http://www.w3.org/1999/xlink" x="0px" y="0px"
	 viewBox="0 0 400 400" style="enable-background:new 0 0 400 400;" xml:space="preserve">
<style type="text/css">
	.st0{fill:none;stroke:#0E0F0F;stroke-linecap:round;stroke-miterlimit:10;}
	.st1{fill:none;stroke:#0E0F0F;stroke-width:3;stroke-linecap:round;stroke-miterlimit:10;}
</style>
<g>
	<path class="st0" d="M201.1,9.4v12.9V9.4z"/>
	<path class="st0" d="M181.1,10.4l1.4,12.8L181.1,10.4z"/>
	<path class="st0" d="M161.4,13.4l2.7,12.6L161.4,13.4z"/>
	<path class="st0" d="M142,18.5l4,12.3L142,18.5z"/>
	<path class="st0" d="M123.3,25.6l5.3,11.8L123.3,25.6z"/>
	<path class="st0" d="M105.5,34.7l6.5,11.2L105.5,34.7z"/>
	<path class="st0" d="M88.7,45.5l7.6,10.4L88.7,45.5z"/>
	<path class="st0" d="M73.1,58l8.6,9.6L73.1,58z"/>
	<path class="st0" d="M58.9,72.1l9.6,8.6L58.9,72.1z"/>
	<path class="st0" d="M46.3,87.6l10.4,7.6L46.3,87.6z"/>
	<path class="st0" d="M35.3,104.3l11.2,6.5L35.3,104.3z"/>
	<path class="st0" d="M26.2,122.1l11.8,5.3L26.2,122.1z"/>
	<path class="st0" d="M19,140.7l12.3,4L19,140.7z"/>
	<path class="st0" d="M13.7,160l12.6,2.7L13.7,160z"/>
	<path class="st0" d="M10.5,179.8l12.8,1.4L10.5,179.8z"/>
	<path class="st0" d="M9.4,199.7h12.9H9.4z"/>
	<path class="st0" d="M10.4,219.7l12.8-1.4L10.4,219.7z"/>
	<path class="st0" d="M13.4,239.5l12.6-2.7L13.4,239.5z"/>
	<path class="st0" d="M18.5,258.8l12.3-4L18.5,258.8z"/>
	<path class="st0" d="M25.6,277.5l11.8-5.3L25.6,277.5z"/>
	<path class="st0" d="M34.7,295.3l11.2-6.5L34.7,295.3z"/>
	<path class="st0" d="M45.5,312.1l10.4-7.6L45.5,312.1z"/>
	<path class="st0" d="M58,327.7l9.6-8.6L58,327.7z"/>
	<path class="st0" d="M72.1,341.9l8.6-9.6L72.1,341.9z"/>
	<path class="st0" d="M87.6,354.5l7.6-10.4L87.6,354.5z"/>
	<path class="st0" d="M104.3,365.5l6.5-11.2L104.3,365.5z"/>
	<path class="st0" d="M122.1,374.6l5.3-11.8L122.1,374.6z"/>
	<path class="st0" d="M140.7,381.9l4-12.3L140.7,381.9z"/>
	<path class="st0" d="M160,387.1l2.7-12.6L160,387.1z"/>
	<path class="st0" d="M179.8,390.3l1.4-12.8L179.8,390.3z"/>
	<path class="st0" d="M199.7,391.4l0-12.9L199.7,391.4z"/>
	<path class="st0" d="M219.7,390.4l-1.3-12.8L219.7,390.4z"/>
	<path class="st0" d="M239.5,387.4l-2.7-12.6L239.5,387.4z"/>
	<path class="st0" d="M258.8,382.3l-4-12.3L258.8,382.3z"/>
	<path class="st0" d="M277.5,375.2l-5.2-11.8L277.5,375.2z"/>
	<path class="st0" d="M295.3,366.2l-6.5-11.2L295.3,366.2z"/>
	<path class="st0" d="M312.1,355.3l-7.6-10.5L312.1,355.3z"/>
	<path class="st0" d="M327.7,342.8l-8.6-9.6L327.7,342.8z"/>
	<path class="st0" d="M341.9,328.7l-9.6-8.6L341.9,328.7z"/>
	<path class="st0" d="M354.5,313.2l-10.4-7.6L354.5,313.2z"/>
	<path class="st0" d="M365.5,296.5l-11.2-6.5L365.5,296.5z"/>
	<path class="st0" d="M374.6,278.7l-11.8-5.3L374.6,278.7z"/>
	<path class="st0" d="M381.9,260.1l-12.3-4L381.9,260.1z"/>
	<path class="st0" d="M387.1,240.8l-12.6-2.7L387.1,240.8z"/>
	<path class="st0" d="M390.3,221.1l-12.8-1.4L390.3,221.1z"/>
	<path class="st0" d="M391.4,201.1l-12.9,0L391.4,201.1z"/>
	<path class="st0" d="M390.4,181.1l-12.8,1.3L390.4,181.1z"/>
	<path class="st0" d="M387.4,161.4l-12.6,2.7L387.4,161.4z"/>
	<path class="st0" d="M382.3,142l-12.3,4L382.3,142z"/>
	<path class="st0" d="M375.2,123.3l-11.8,5.2L375.2,123.3z"/>
	<path class="st0" d="M366.2,105.5L355,112L366.2,105.5z"/>
	<path class="st0" d="M355.3,88.7l-10.5,7.6L355.3,88.7z"/>
	<path class="st0" d="M342.8,73.1l-9.6,8.6L342.8,73.1z"/>
	<path class="st0" d="M328.7,58.9l-8.6,9.6L328.7,58.9z"/>
	<path class="st0" d="M313.2,46.3l-7.6,10.4L313.2,46.3z"/>
	<path class="st0" d="M296.5,35.3L290,46.5L296.5,35.3z"/>
	<path class="st0" d="M278.7,26.2L273.5,38L278.7,26.2z"/>
	<path class="st0" d="M260.1,19l-4,12.3L260.1,19z"/>
	<path class="st0" d="M240.8,13.7l-2.7,12.6L240.8,13.7z"/>
	<path class="st0" d="M221.1,10.5l-1.4,12.8L221.1,10.5z"/>
</g>
<g>
	<path class="st1" d="M201.1,9.4v12.9V9.4z"/>
	<path class="st1" d="M105.5,34.7l6.5,11.2L105.5,34.7z"/>
	<path class="st1" d="M35.3,104.3l11.2,6.5L35.3,104.3z"/>
	<path class="st1" d="M9.4,199.7h12.9H9.4z"/>
	<path class="st1" d="M34.7,295.3l11.2-6.5L34.7,295.3z"/>
	<path class="st1" d="M104.3,365.5l6.5-11.2L104.3,365.5z"/>
	<path class="st1" d="M199.7,391.4l0-12.9L199.7,391.4z"/>
	<path class="st1" d="M295.3,366.2l-6.5-11.2L295.3,366.2z"/>
	<path class="st1" d="M365.5,296.5l-11.2-6.5L365.5,296.5z"/>
	<path class="st1" d="M391.4,201.1l-12.9,0L391.4,201.1z"/>
	<path class="st1" d="M366.2,105.5L355,112L366.2,105.5z"/>
	<path class="st1" d="M296.5,35.3L290,46.5L296.5,35.3z"/>
</g>
</svg>
