<?xml version="1.0" encoding="utf-8"?>
<!-- Generator: Adobe Illustrator 20.1.0, SVG Export Plug-In . SVG Version: 6.00 Build 0)  -->
<svg version="1.1" id="Слой_1" xmlns="http://www.w3.org/2000/svg" xmlns:xlink="http://www.w3.org/1999/xlink" x="0px" y="0px"
	 viewBox="0 0 400 200" style="enable-background:new 0 0 400 200;" xml:space="preserve">
<style type="text/css">
	.st0{fill:none;stroke:#000000;stroke-width:4;stroke-miterlimit:10;}
</style>
<line class="st0" x1="206.5" y1="113.5" x2="378.6" y2="113.5"/>
<g>
	<path d="M283.4,49.7c-0.1,2.6-0.3,5.4-0.3,9.7V80c0,8.1-1.6,13.1-5,16.2c-3.4,3.2-8.4,4.2-12.9,4.2c-4.2,0-8.9-1-11.8-2.9l1.6-4.9
		c2.3,1.5,6,2.8,10.4,2.8c6.6,0,11.4-3.4,11.4-12.4V79h-0.1c-2,3.3-5.8,5.9-11.3,5.9c-8.8,0-15.1-7.5-15.1-17.2
		c0-12,7.8-18.8,15.9-18.8c6.1,0,9.5,3.2,11,6.1h0.1l0.3-5.3H283.4z M276.8,63.7c0-1.1-0.1-2-0.4-2.9c-1.2-3.7-4.3-6.8-9-6.8
		c-6.1,0-10.5,5.2-10.5,13.4c0,6.9,3.5,12.7,10.5,12.7c3.9,0,7.5-2.5,8.9-6.6c0.4-1.1,0.5-2.3,0.5-3.4V63.7z"/>
	<path d="M301.6,39.5v10.2h9.2v4.9h-9.2v19.1c0,4.4,1.2,6.9,4.8,6.9c1.7,0,2.9-0.2,3.7-0.4l0.3,4.8c-1.2,0.5-3.2,0.9-5.7,0.9
		c-3,0-5.4-1-6.9-2.7c-1.8-1.9-2.5-5-2.5-9.2V54.6h-5.5v-4.9h5.5v-8.5L301.6,39.5z"/>
</g>
<g>
	<path d="M321,53.5v-2.7l3.5-3.4c8.4-8,12.3-12.3,12.3-17.3c0-3.4-1.6-6.5-6.6-6.5c-3,0-5.5,1.5-7,2.8l-1.4-3.2
		c2.3-1.9,5.5-3.4,9.4-3.4c7.1,0,10.1,4.9,10.1,9.6c0,6.1-4.4,11-11.4,17.7l-2.6,2.4v0.1h14.8v3.7H321z"/>
</g>
<g>
	<path d="M275.2,167.1v-3.3l4.2-4.1c10.1-9.6,14.7-14.7,14.7-20.7c0-4-1.9-7.7-7.9-7.7c-3.6,0-6.6,1.8-8.4,3.3l-1.7-3.8
		c2.7-2.3,6.6-4,11.2-4c8.5,0,12.1,5.8,12.1,11.5c0,7.3-5.3,13.2-13.6,21.3l-3.2,2.9v0.1h17.8v4.4H275.2z"/>
</g>
<g>
	<path d="M61.7,132.5L45.7,83.3h6.9l7.7,24.3c2.1,6.7,3.9,12.6,5.3,18.4h0.1c1.4-5.7,3.4-11.9,5.6-18.3l8.3-24.3h6.8l-17.6,49.3
		H61.7z"/>
	<path d="M114.7,87v10.2h9.2v4.9h-9.2v19.1c0,4.4,1.2,6.9,4.8,6.9c1.7,0,2.9-0.2,3.7-0.4l0.3,4.8c-1.2,0.5-3.2,0.9-5.7,0.9
		c-3,0-5.4-1-6.9-2.7c-1.8-1.9-2.5-5-2.5-9.2v-19.3H103v-4.9h5.5v-8.5L114.7,87z"/>
	<path d="M165.5,93.7v17.2H182v4.4h-16.5v17.3h-4.7v-17.3h-16.5v-4.4h16.5V93.7H165.5z"/>
</g>
<g>
	<path d="M98.5,127.8c0,10.8-4,16.7-11,16.7c-6.2,0-10.4-5.8-10.5-16.3c0-10.6,4.6-16.5,11-16.5C94.7,111.8,98.5,117.7,98.5,127.8z
		 M81.3,128.3c0,8.2,2.5,12.9,6.4,12.9c4.4,0,6.5-5.1,6.5-13.2c0-7.8-2-12.9-6.4-12.9C84,115.1,81.3,119.6,81.3,128.3z"/>
</g>
</svg>
